<mxfile host="app.diagrams.net" agent="Mozilla/5.0 (Windows NT 10.0; Win64; x64; rv:129.0) Gecko/20100101 Firefox/129.0" version="24.7.6">
  <diagram name="Page-1" id="_8Z-U01voDiPmD-Zs1qL">
    <mxGraphModel dx="1434" dy="746" grid="1" gridSize="10" guides="1" tooltips="1" connect="1" arrows="1" fold="1" page="1" pageScale="1" pageWidth="1169" pageHeight="827" math="0" shadow="0">
      <root>
        <mxCell id="0" />
        <mxCell id="1" parent="0" />
        <mxCell id="JKJvemzIVtSR8P2CJAXn-3" style="edgeStyle=orthogonalEdgeStyle;rounded=0;orthogonalLoop=1;jettySize=auto;html=1;exitX=0;exitY=0.25;exitDx=0;exitDy=0;entryX=1;entryY=0.5;entryDx=0;entryDy=0;startArrow=classic;startFill=1;strokeWidth=2;fontSize=12;fontFamily=JetBrains Mono;fontSource=https%3A%2F%2Ffonts.googleapis.com%2Fcss%3Ffamily%3DJetBrains%2BMono;strokeColor=#FFAB2E;fillColor=#ffcc99;" edge="1" parent="1" source="JKJvemzIVtSR8P2CJAXn-1" target="JKJvemzIVtSR8P2CJAXn-2">
          <mxGeometry relative="1" as="geometry" />
        </mxCell>
        <mxCell id="JKJvemzIVtSR8P2CJAXn-4" value="SPI2" style="edgeLabel;html=1;align=center;verticalAlign=middle;resizable=0;points=[];fontSize=12;fontFamily=JetBrains Mono;fontSource=https%3A%2F%2Ffonts.googleapis.com%2Fcss%3Ffamily%3DJetBrains%2BMono;labelBackgroundColor=#FFAB2E;" vertex="1" connectable="0" parent="JKJvemzIVtSR8P2CJAXn-3">
          <mxGeometry x="0.025" y="-3" relative="1" as="geometry">
            <mxPoint x="-3" as="offset" />
          </mxGeometry>
        </mxCell>
        <mxCell id="JKJvemzIVtSR8P2CJAXn-6" style="edgeStyle=orthogonalEdgeStyle;rounded=0;orthogonalLoop=1;jettySize=auto;html=1;exitX=0.25;exitY=0;exitDx=0;exitDy=0;entryX=0.5;entryY=1;entryDx=0;entryDy=0;startArrow=classic;startFill=1;strokeWidth=2;fontSize=12;fontFamily=JetBrains Mono;fontSource=https%3A%2F%2Ffonts.googleapis.com%2Fcss%3Ffamily%3DJetBrains%2BMono;strokeColor=#FFAB2E;fillColor=#ffcc99;" edge="1" parent="1" source="JKJvemzIVtSR8P2CJAXn-1" target="JKJvemzIVtSR8P2CJAXn-5">
          <mxGeometry relative="1" as="geometry" />
        </mxCell>
        <mxCell id="JKJvemzIVtSR8P2CJAXn-7" value="SPI3" style="edgeLabel;html=1;align=center;verticalAlign=middle;resizable=0;points=[];fontSize=12;fontFamily=JetBrains Mono;fontSource=https%3A%2F%2Ffonts.googleapis.com%2Fcss%3Ffamily%3DJetBrains%2BMono;labelBackgroundColor=#FFAB2E;" vertex="1" connectable="0" parent="JKJvemzIVtSR8P2CJAXn-6">
          <mxGeometry x="0.0167" relative="1" as="geometry">
            <mxPoint as="offset" />
          </mxGeometry>
        </mxCell>
        <mxCell id="JKJvemzIVtSR8P2CJAXn-1" value="STM32F446RE&lt;br&gt;MCU" style="rounded=0;whiteSpace=wrap;html=1;fontFamily=JetBrains Mono;fillColor=#cce5ff;strokeColor=#36393d;fontSize=12;fontSource=https%3A%2F%2Ffonts.googleapis.com%2Fcss%3Ffamily%3DJetBrains%2BMono;" vertex="1" parent="1">
          <mxGeometry x="520" y="400" width="120" height="120" as="geometry" />
        </mxCell>
        <mxCell id="JKJvemzIVtSR8P2CJAXn-2" value="BNO085 9-DOF IMU" style="rounded=0;whiteSpace=wrap;html=1;fontSize=12;fontFamily=JetBrains Mono;fontSource=https%3A%2F%2Ffonts.googleapis.com%2Fcss%3Ffamily%3DJetBrains%2BMono;fillColor=#ffcccc;strokeColor=#36393d;" vertex="1" parent="1">
          <mxGeometry x="280" y="350" width="120" height="60" as="geometry" />
        </mxCell>
        <mxCell id="JKJvemzIVtSR8P2CJAXn-5" value="RFM95CW (SX1276) LoRa Module" style="rounded=0;whiteSpace=wrap;html=1;fontSize=12;fontFamily=JetBrains Mono;fontSource=https%3A%2F%2Ffonts.googleapis.com%2Fcss%3Ffamily%3DJetBrains%2BMono;fillColor=#cdeb8b;strokeColor=#36393d;" vertex="1" parent="1">
          <mxGeometry x="400" y="220" width="120" height="60" as="geometry" />
        </mxCell>
        <mxCell id="JKJvemzIVtSR8P2CJAXn-10" style="edgeStyle=orthogonalEdgeStyle;rounded=0;orthogonalLoop=1;jettySize=auto;html=1;exitX=1;exitY=0.5;exitDx=0;exitDy=0;entryX=0;entryY=0.5;entryDx=0;entryDy=0;startArrow=classic;startFill=1;strokeWidth=2;fontSize=12;fontFamily=JetBrains Mono;fontSource=https%3A%2F%2Ffonts.googleapis.com%2Fcss%3Ffamily%3DJetBrains%2BMono;strokeColor=#FFAB2E;fillColor=#ffcc99;" edge="1" parent="1" source="JKJvemzIVtSR8P2CJAXn-9" target="JKJvemzIVtSR8P2CJAXn-1">
          <mxGeometry relative="1" as="geometry" />
        </mxCell>
        <mxCell id="JKJvemzIVtSR8P2CJAXn-11" value="I2C1" style="edgeLabel;html=1;align=center;verticalAlign=middle;resizable=0;points=[];fontSize=12;fontFamily=JetBrains Mono;fontSource=https%3A%2F%2Ffonts.googleapis.com%2Fcss%3Ffamily%3DJetBrains%2BMono;labelBackgroundColor=#FFAB2E;" vertex="1" connectable="0" parent="JKJvemzIVtSR8P2CJAXn-10">
          <mxGeometry x="-0.0235" y="2" relative="1" as="geometry">
            <mxPoint as="offset" />
          </mxGeometry>
        </mxCell>
        <mxCell id="JKJvemzIVtSR8P2CJAXn-9" value="BMP390 Barometric Pressure Sensor" style="rounded=0;whiteSpace=wrap;html=1;fontSize=12;fontFamily=JetBrains Mono;fontSource=https%3A%2F%2Ffonts.googleapis.com%2Fcss%3Ffamily%3DJetBrains%2BMono;fillColor=#ffcccc;strokeColor=#36393d;" vertex="1" parent="1">
          <mxGeometry x="280" y="430" width="120" height="60" as="geometry" />
        </mxCell>
        <mxCell id="JKJvemzIVtSR8P2CJAXn-13" value="&lt;div&gt;Reserved&lt;/div&gt;&lt;div&gt;(TBD)&lt;br&gt;&lt;/div&gt;" style="rounded=0;whiteSpace=wrap;html=1;fontSize=12;fontFamily=JetBrains Mono;fontSource=https%3A%2F%2Ffonts.googleapis.com%2Fcss%3Ffamily%3DJetBrains%2BMono;" vertex="1" parent="1">
          <mxGeometry x="280" y="510" width="120" height="60" as="geometry" />
        </mxCell>
        <mxCell id="JKJvemzIVtSR8P2CJAXn-14" style="edgeStyle=orthogonalEdgeStyle;rounded=0;orthogonalLoop=1;jettySize=auto;html=1;exitX=1;exitY=0.5;exitDx=0;exitDy=0;entryX=0;entryY=0.75;entryDx=0;entryDy=0;startArrow=classic;startFill=1;strokeWidth=2;fontSize=12;fontFamily=JetBrains Mono;fontSource=https%3A%2F%2Ffonts.googleapis.com%2Fcss%3Ffamily%3DJetBrains%2BMono;strokeColor=#FFAB2E;fillColor=#ffcc99;" edge="1" parent="1" source="JKJvemzIVtSR8P2CJAXn-13" target="JKJvemzIVtSR8P2CJAXn-1">
          <mxGeometry relative="1" as="geometry">
            <mxPoint x="460" y="630" as="sourcePoint" />
            <mxPoint x="580" y="580" as="targetPoint" />
          </mxGeometry>
        </mxCell>
        <mxCell id="JKJvemzIVtSR8P2CJAXn-15" value="I2C2" style="edgeLabel;html=1;align=center;verticalAlign=middle;resizable=0;points=[];fontSize=12;fontFamily=JetBrains Mono;fontSource=https%3A%2F%2Ffonts.googleapis.com%2Fcss%3Ffamily%3DJetBrains%2BMono;labelBackgroundColor=#FFAB2E;" vertex="1" connectable="0" parent="JKJvemzIVtSR8P2CJAXn-14">
          <mxGeometry x="-0.0235" y="2" relative="1" as="geometry">
            <mxPoint x="2" y="3" as="offset" />
          </mxGeometry>
        </mxCell>
        <mxCell id="JKJvemzIVtSR8P2CJAXn-23" style="edgeStyle=orthogonalEdgeStyle;rounded=0;orthogonalLoop=1;jettySize=auto;html=1;exitX=0;exitY=0.5;exitDx=0;exitDy=0;entryX=1;entryY=0.5;entryDx=0;entryDy=0;strokeWidth=2;startArrow=classic;startFill=1;fontFamily=JetBrains Mono;fontSource=https%3A%2F%2Ffonts.googleapis.com%2Fcss%3Ffamily%3DJetBrains%2BMono;strokeColor=#FFAB2E;fillColor=#ffcc99;" edge="1" parent="1" source="JKJvemzIVtSR8P2CJAXn-16" target="JKJvemzIVtSR8P2CJAXn-1">
          <mxGeometry relative="1" as="geometry" />
        </mxCell>
        <mxCell id="JKJvemzIVtSR8P2CJAXn-24" value="CAN2" style="edgeLabel;html=1;align=center;verticalAlign=middle;resizable=0;points=[];fontFamily=JetBrains Mono;fontSource=https%3A%2F%2Ffonts.googleapis.com%2Fcss%3Ffamily%3DJetBrains%2BMono;fontSize=12;labelBackgroundColor=#FFAB2E;" vertex="1" connectable="0" parent="JKJvemzIVtSR8P2CJAXn-23">
          <mxGeometry x="-0.0333" relative="1" as="geometry">
            <mxPoint x="-2" as="offset" />
          </mxGeometry>
        </mxCell>
        <mxCell id="JKJvemzIVtSR8P2CJAXn-16" value="TJA1051T/3 CAN Bus Transceiver (2 of 2)" style="rounded=0;whiteSpace=wrap;html=1;fontSize=12;fontFamily=JetBrains Mono;fontSource=https%3A%2F%2Ffonts.googleapis.com%2Fcss%3Ffamily%3DJetBrains%2BMono;fillColor=#ffcc99;strokeColor=#36393d;" vertex="1" parent="1">
          <mxGeometry x="760" y="430" width="120" height="60" as="geometry" />
        </mxCell>
        <mxCell id="JKJvemzIVtSR8P2CJAXn-22" style="edgeStyle=orthogonalEdgeStyle;rounded=0;orthogonalLoop=1;jettySize=auto;html=1;exitX=0;exitY=0.5;exitDx=0;exitDy=0;entryX=1;entryY=0.25;entryDx=0;entryDy=0;strokeWidth=2;startArrow=classic;startFill=1;fontFamily=JetBrains Mono;fontSource=https%3A%2F%2Ffonts.googleapis.com%2Fcss%3Ffamily%3DJetBrains%2BMono;strokeColor=#FFAB2E;fillColor=#ffcc99;" edge="1" parent="1" source="JKJvemzIVtSR8P2CJAXn-21" target="JKJvemzIVtSR8P2CJAXn-1">
          <mxGeometry relative="1" as="geometry" />
        </mxCell>
        <mxCell id="JKJvemzIVtSR8P2CJAXn-25" value="CAN1" style="edgeLabel;html=1;align=center;verticalAlign=middle;resizable=0;points=[];fontFamily=JetBrains Mono;fontSource=https%3A%2F%2Ffonts.googleapis.com%2Fcss%3Ffamily%3DJetBrains%2BMono;fontSize=12;labelBackgroundColor=#FFAB2E;" vertex="1" connectable="0" parent="JKJvemzIVtSR8P2CJAXn-22">
          <mxGeometry x="0.0118" y="-1" relative="1" as="geometry">
            <mxPoint y="-6" as="offset" />
          </mxGeometry>
        </mxCell>
        <mxCell id="JKJvemzIVtSR8P2CJAXn-21" value="TJA1051T/3 CAN Bus Transceiver (1 of 2)" style="rounded=0;whiteSpace=wrap;html=1;fontSize=12;fontFamily=JetBrains Mono;fontSource=https%3A%2F%2Ffonts.googleapis.com%2Fcss%3Ffamily%3DJetBrains%2BMono;fillColor=#ffcc99;strokeColor=#36393d;" vertex="1" parent="1">
          <mxGeometry x="760" y="350" width="120" height="60" as="geometry" />
        </mxCell>
        <mxCell id="JKJvemzIVtSR8P2CJAXn-29" style="edgeStyle=orthogonalEdgeStyle;rounded=0;orthogonalLoop=1;jettySize=auto;html=1;exitX=0.5;exitY=1;exitDx=0;exitDy=0;entryX=0.5;entryY=0;entryDx=0;entryDy=0;startArrow=classic;startFill=1;strokeWidth=2;strokeColor=#FFAB2E;fillColor=#ffcc99;" edge="1" parent="1" source="JKJvemzIVtSR8P2CJAXn-28" target="JKJvemzIVtSR8P2CJAXn-1">
          <mxGeometry relative="1" as="geometry" />
        </mxCell>
        <mxCell id="JKJvemzIVtSR8P2CJAXn-31" value="SWD&lt;br style=&quot;font-size: 12px;&quot;&gt;SWO" style="edgeLabel;html=1;align=center;verticalAlign=middle;resizable=0;points=[];fontSize=12;fontFamily=JetBrains Mono;fontSource=https%3A%2F%2Ffonts.googleapis.com%2Fcss%3Ffamily%3DJetBrains%2BMono;labelBackgroundColor=#FFAB2E;" vertex="1" connectable="0" parent="JKJvemzIVtSR8P2CJAXn-29">
          <mxGeometry x="0.08" y="-2" relative="1" as="geometry">
            <mxPoint as="offset" />
          </mxGeometry>
        </mxCell>
        <mxCell id="JKJvemzIVtSR8P2CJAXn-28" value="TC2030-NL Programming contact pads" style="rounded=0;whiteSpace=wrap;html=1;fontSize=12;fontFamily=JetBrains Mono;fontSource=https%3A%2F%2Ffonts.googleapis.com%2Fcss%3Ffamily%3DJetBrains%2BMono;fillColor=#cdeb8b;strokeColor=#36393d;" vertex="1" parent="1">
          <mxGeometry x="520" y="140" width="120" height="60" as="geometry" />
        </mxCell>
      </root>
    </mxGraphModel>
  </diagram>
</mxfile>
